<?xml version="1.0" standalone="no"?>
<!DOCTYPE svg PUBLIC "-//W3C//DTD SVG 20010904//EN"
 "http://www.w3.org/TR/2001/REC-SVG-20010904/DTD/svg10.dtd">
<svg version="1.0" xmlns="http://www.w3.org/2000/svg"
 width="260.000000pt" height="260.000000pt" viewBox="0 0 260.000000 260.000000"
 preserveAspectRatio="xMidYMid meet">
<metadata>
Created by potrace 1.11, written by Peter Selinger 2001-2013
</metadata>
<g transform="translate(0.000000,260.000000) scale(0.100000,-0.100000)"
fill="#000000" stroke="none">
<path d="M512 2508 c-153 -17 -268 -84 -352 -204 -57 -81 -82 -166 -86 -294
-9 -284 121 -473 371 -535 84 -20 120 -23 285 -24 l146 -1 -1 -192 0 -192
-155 -2 c-154 -2 -180 -4 -275 -25 -179 -41 -317 -180 -360 -361 -14 -63 -15
-240 -1 -301 39 -169 155 -291 336 -353 82 -28 311 -25 394 5 177 64 262 178
301 406 3 17 6 112 6 213 l1 183 191 -3 191 -3 2 -195 c2 -220 16 -308 66
-400 63 -119 146 -180 292 -215 80 -19 270 -13 346 10 180 56 309 207 338 395
9 60 8 173 -2 233 -28 173 -137 304 -305 368 -88 33 -146 41 -326 44 -82 2
-153 3 -157 4 -5 1 -8 87 -8 191 l0 190 143 1 c214 1 299 15 407 67 66 32 167
130 197 192 60 124 75 324 35 456 -52 170 -193 299 -367 334 -33 7 -105 13
-160 12 -260 -1 -417 -112 -476 -338 -17 -66 -21 -112 -22 -281 l-2 -203 -30
-1 c-38 0 -303 0 -331 0 -22 1 -22 4 -23 184 -1 100 -3 192 -5 203 -3 12 -7
37 -10 55 -13 78 -59 181 -108 239 -28 34 -112 90 -162 109 -85 32 -208 43
-324 29z m213 -257 c69 -31 124 -98 141 -171 4 -19 8 -115 9 -212 1 -174 1
-178 -19 -179 -103 -4 -284 3 -322 11 -68 15 -135 55 -162 94 -57 84 -71 239
-29 337 50 119 247 180 382 120z m1425 1 c52 -21 108 -71 131 -119 20 -40 24
-63 24 -144 0 -86 -3 -101 -30 -155 -58 -112 -143 -145 -378 -146 l-142 -1 -1
184 c-2 210 6 252 60 316 42 48 91 73 160 82 55 7 136 -1 176 -17z m-645 -982
c1 -96 -1 -182 -3 -190 -3 -13 -31 -16 -192 -15 l-189 0 0 193 0 192 192 -2
192 -3 0 -175z m-631 -635 c0 -184 -1 -192 -26 -245 -15 -30 -33 -62 -40 -70
-82 -97 -287 -104 -405 -14 -43 33 -65 75 -78 154 -26 155 27 279 144 332 62
28 117 35 271 34 l135 -1 -1 -190z m1256 169 c71 -24 143 -94 161 -155 22 -73
17 -205 -9 -263 -40 -89 -119 -135 -239 -141 -160 -8 -252 55 -282 193 -6 29
-11 129 -11 223 l0 169 163 -4 c123 -3 175 -8 217 -22z"/>
</g>
</svg>
