<svg width="120" height="82" viewBox="0 0 120 82" fill="none" xmlns="http://www.w3.org/2000/svg">
<g opacity="0.4">
<path d="M23.0854 38.3401C32.4134 38.3401 39.9752 30.959 39.9752 21.8539C39.9752 12.7488 32.4134 5.36768 23.0854 5.36768C13.7574 5.36768 6.19556 12.7488 6.19556 21.8539C6.19556 30.959 13.7574 38.3401 23.0854 38.3401Z" stroke="white" stroke-width="2" stroke-miterlimit="10"/>
<path d="M24.1558 34.769C25.3842 35.7429 26.8055 36.6642 28.4375 37.4977" stroke="white" stroke-width="2" stroke-miterlimit="10"/>
<path d="M28.4375 6.21899C28.4375 6.21899 18.365 11.4746 16.3119 22.8982C16.3119 22.8982 16.7681 25.5129 18.7862 28.768" stroke="white" stroke-width="2" stroke-miterlimit="10"/>
<path d="M24.2713 34.6467C25.3967 33.4236 24.9735 31.2032 23.326 29.6874C21.6786 28.1716 19.4307 27.9343 18.3053 29.1574C17.1799 30.3805 17.6032 32.6009 19.2506 34.1167C20.8981 35.6326 23.146 35.8699 24.2713 34.6467Z" stroke="white" stroke-width="2" stroke-miterlimit="10"/>
<path d="M43.954 46.0907C44.5686 44.9357 43.7906 43.3204 42.2164 42.4829C40.6421 41.6453 38.8678 41.9026 38.2533 43.0576C37.6387 44.2126 38.4167 45.8279 39.9909 46.6655C41.5652 47.5031 43.3395 47.2458 43.954 46.0907Z" stroke="white" stroke-width="2" stroke-miterlimit="10"/>
<path d="M39.6418 25.1704L41.9757 25.381C43.1338 25.4863 43.9059 26.6006 43.5725 27.6885C42.6074 30.8559 39.8787 36.831 32.491 40.5687C22.0764 45.8418 14.2588 41.7619 17.2507 37.489" stroke="white" stroke-width="2" stroke-miterlimit="10"/>
<path d="M17.6192 41.4197C17.6192 41.4197 14.8379 50.6499 15.61 56.7741C16.3821 62.8983 19.8303 68.6364 26.3054 73.8218C26.3054 73.8218 32.8771 72.7865 36.9306 66.1007C36.9306 66.1007 30.8503 60.0731 29.4991 56.4933C29.4991 56.4933 31.5259 49.711 33.1666 47.3596" stroke="white" stroke-width="2" stroke-miterlimit="10" stroke-linecap="round"/>
<path d="M15.5047 55.6423C15.5047 55.6423 20.2339 58.9413 29.4991 56.4934" stroke="white" stroke-width="2" stroke-miterlimit="10" stroke-linecap="round"/>
<path d="M8.0995 29.4521L4.90579 36.4362C4.37936 37.5944 4.61625 38.9455 5.51997 39.8668L15.4696 49.9919" stroke="white" stroke-width="2" stroke-miterlimit="10" stroke-linecap="round"/>
<path d="M6.30085 20.0291C6.30085 20.0291 2.09814 21.5557 2.00162 26.4516C1.90511 31.3474 6.19556 32.9531 6.19556 32.9531" stroke="white" stroke-width="2" stroke-miterlimit="10" stroke-linecap="round"/>
<path d="M4.62503 38.349L10.0473 36.717" stroke="white" stroke-width="2" stroke-miterlimit="10" stroke-linecap="round"/>
<path d="M19.0757 49.9919L21.8395 53.0979L23.7698 51.2203" stroke="white" stroke-width="2" stroke-miterlimit="10" stroke-linecap="round" stroke-linejoin="round"/>
<path d="M39.9752 21.082C39.9752 21.082 46.1521 16.9407 54.189 16.9407C54.189 16.9407 61.8398 18.0111 63.7701 27.4869C63.7701 27.4869 60.1728 31.3212 53.6713 32.6987" stroke="white" stroke-width="2" stroke-miterlimit="10" stroke-linecap="round" stroke-linejoin="round"/>
<path d="M67.1218 15.2383C67.3148 23.1524 63.7789 27.4779 63.7789 27.4779" stroke="white" stroke-width="2" stroke-miterlimit="10" stroke-linecap="round" stroke-linejoin="round"/>
<path d="M54.189 16.9405C54.189 16.9405 56.4088 11.7638 58.6286 9.12288C58.6286 9.12288 63.077 3.95504 72.5265 2.04232C73.281 1.89316 74.0532 2.13883 74.4655 2.77056C74.9832 3.56898 74.7375 4.62186 73.9128 5.12197L66.7971 8.85089" stroke="white" stroke-width="2" stroke-miterlimit="10" stroke-linecap="round" stroke-linejoin="round"/>
<path d="M71.5087 6.57861C72.4914 7.71045 72.3422 9.39505 71.1841 10.3514L67.1218 15.2385C67.1218 15.2385 61.5942 14.3611 58.6286 9.11428" stroke="white" stroke-width="2" stroke-miterlimit="10" stroke-linecap="round" stroke-linejoin="round"/>
<path d="M36.5621 66.6711C36.5621 66.6711 41.8879 70.1456 43.6515 71.5582C45.415 72.9708 43.9673 74.3834 43.1952 74.3834" stroke="white" stroke-width="2" stroke-miterlimit="10" stroke-linecap="round" stroke-linejoin="round"/>
<path d="M26.2967 73.8218C26.2967 73.8218 29.9729 79.753 36.9219 80.3233C43.8708 80.8848 46.2749 77.2173 46.3714 76.4627C46.4679 75.7082 39.9752 72.9795 39.9752 72.9795" stroke="white" stroke-width="2" stroke-miterlimit="10" stroke-linecap="round" stroke-linejoin="round"/>
<path d="M30.6134 53.0979C30.6134 53.0979 38.9487 63.8372 51.8814 67.2239C51.8814 67.2239 43.3268 51.6502 61.2695 37.9015C54.2592 35.8308 48.3368 26.9165 48.3368 26.9165" stroke="white" stroke-width="2" stroke-miterlimit="10" stroke-linecap="round" stroke-linejoin="round"/>
<path d="M38.5714 36.1292C38.5714 36.1292 48.4684 40.2003 53.3555 46.2981" stroke="white" stroke-width="2" stroke-miterlimit="10" stroke-linecap="round" stroke-linejoin="round"/>
<path d="M48.2139 33.3215L46.4767 35.866" stroke="white" stroke-width="2" stroke-miterlimit="10" stroke-linecap="round" stroke-linejoin="round"/>
<path d="M45.0114 64.6091L39.2996 68.496" stroke="white" stroke-width="2" stroke-miterlimit="10" stroke-linecap="round" stroke-linejoin="round"/>
<path d="M61.2695 37.9103C61.2695 37.9103 69.9557 34.6288 76.6415 31.9001C83.3272 29.1802 90.0217 28.7678 90.0217 28.7678C90.0217 28.7678 98.7693 31.5667 103.911 37.9015C103.911 37.9015 105.069 45.9998 101.077 48.3863C101.077 48.3863 90.399 45.9998 87.9599 41.4198C87.9599 41.4198 84.8714 47.4475 76.8959 49.992" stroke="white" stroke-width="2" stroke-miterlimit="10" stroke-linecap="round" stroke-linejoin="round"/>
<path d="M51.8727 67.224C51.8727 67.224 68.2711 69.0314 78.3085 64.6094C83.257 62.4334 85.2926 57.8183 86.091 53.6946" stroke="white" stroke-width="2" stroke-miterlimit="10" stroke-linecap="round" stroke-linejoin="round"/>
<path d="M68.0342 41.218C68.0342 41.218 71.614 45.1224 71.614 49.3953" stroke="white" stroke-width="2" stroke-miterlimit="10" stroke-linecap="round" stroke-linejoin="round"/>
<path d="M56.0578 59.187C56.0578 59.187 59.1462 55.1685 63.3928 53.0979" stroke="white" stroke-width="2" stroke-miterlimit="10" stroke-linecap="round" stroke-linejoin="round"/>
<path d="M68.3413 49.3953C68.3413 49.3953 81.0109 49.2812 86.6701 53.7033C92.3293 58.1254 95.3563 70.8037 95.3563 70.8037C95.3563 70.8037 91.4343 77.2087 86.091 77.3315C86.091 77.3315 78.7648 67.3994 77.6066 64.6093C76.4484 61.8192 77.0626 54.5105 85.3891 52.8347" stroke="white" stroke-width="2" stroke-miterlimit="10" stroke-linecap="round" stroke-linejoin="round"/>
<path d="M90.0129 28.7678C90.0129 28.7678 83.0991 32.2686 87.837 41.6304C87.837 41.6304 93.1628 38.1735 90.0129 28.7678Z" stroke="white" stroke-width="2" stroke-miterlimit="10" stroke-linecap="round" stroke-linejoin="round"/>
<path d="M103.902 37.9103C103.902 37.9103 111.202 33.7866 115.352 34.12C119.502 34.4534 118.44 38.6912 116.896 40.4811C115.352 42.271 109.754 47.3599 107.35 47.8249C104.946 48.2899 101.823 47.8249 101.823 47.8249" stroke="white" stroke-width="2" stroke-miterlimit="10" stroke-linecap="round" stroke-linejoin="round"/>
<path d="M88.3108 76.9191C88.3108 76.9191 90.2762 80.4024 98.6992 80.3761C107.122 80.3498 107.315 76.5857 106.675 75.1995C106.034 73.8219 95.3563 70.8037 95.3563 70.8037" stroke="white" stroke-width="2" stroke-miterlimit="10" stroke-linecap="round" stroke-linejoin="round"/>
</g>
</svg>
