<svg width="92" height="24" viewBox="0 0 92 24" fill="none" xmlns="http://www.w3.org/2000/svg">
<path fill-rule="evenodd" clip-rule="evenodd" d="M1.96618 22.678C2.86894 23.5593 4.07262 23.9999 5.57722 23.9999C6.7809 23.9999 7.72664 23.7742 8.41446 23.3229C9.12377 22.8715 9.61814 22.2696 9.89756 21.5173C10.1985 20.765 10.3489 19.9375 10.3489 19.0348V16.3587H13.8955V19.0348C13.8955 19.9375 14.0352 20.765 14.3146 21.5173C14.6156 22.2696 15.1099 22.8715 15.7977 23.3229C16.507 23.7742 17.4635 23.9999 18.6672 23.9999C20.1718 23.9999 21.3647 23.5593 22.246 22.678C23.1488 21.7968 23.6001 20.6146 23.6001 19.1315C23.6001 17.5624 23.138 16.348 22.2138 15.4882C21.2895 14.6069 19.9031 14.1663 18.0546 14.1663H16.1524V10.6198H18.0546C19.9031 10.6198 21.2895 10.1899 22.2138 9.3301C23.138 8.44883 23.6001 7.22366 23.6001 5.65458C23.6001 4.17148 23.1488 2.98929 22.246 2.10803C21.3647 1.22676 20.1718 0.786133 18.6672 0.786133C17.4635 0.786133 16.507 1.01182 15.7977 1.4632C15.1099 1.91458 14.6156 2.51642 14.3146 3.26872C14.0352 4.02102 13.8955 4.84855 13.8955 5.7513V8.42734H10.3489V5.7513C10.3489 4.84855 10.1985 4.02102 9.89756 3.26872C9.61814 2.51642 9.12377 1.91458 8.41446 1.4632C7.72664 1.01182 6.7809 0.786133 5.57722 0.786133C4.07262 0.786133 2.86894 1.22676 1.96618 2.10803C1.08492 2.98929 0.644287 4.17148 0.644287 5.65458C0.644287 7.22366 1.10641 8.44883 2.03067 9.3301C2.97641 10.1899 4.36279 10.6198 6.1898 10.6198H8.09205V14.1663H6.1898C4.36279 14.1663 2.97641 14.6069 2.03067 15.4882C1.10641 16.348 0.644287 17.5624 0.644287 19.1315C0.644287 20.6146 1.08492 21.7968 1.96618 22.678ZM16.1524 8.42734V5.68682C16.1524 4.87004 16.3566 4.22521 16.765 3.75234C17.1949 3.25797 17.8289 3.01079 18.6672 3.01079C19.4195 3.01079 20.0429 3.21498 20.5372 3.62337C21.0531 4.03176 21.311 4.70883 21.311 5.65458C21.311 6.57883 21.0531 7.2774 20.5372 7.75027C20.0214 8.20165 19.1938 8.42734 18.0546 8.42734H16.1524ZM8.09205 8.42734H6.1898C5.05061 8.42734 4.22308 8.20165 3.70722 7.75027C3.19136 7.2774 2.93343 6.57883 2.93343 5.65458C2.93343 4.70883 3.18061 4.03176 3.67498 3.62337C4.19084 3.21498 4.82492 3.01079 5.57722 3.01079C6.41549 3.01079 7.03883 3.25797 7.44722 3.75234C7.8771 4.22521 8.09205 4.87004 8.09205 5.68682V8.42734ZM13.8955 14.1663H10.3489V10.6198H13.8955V14.1663ZM7.44722 21.066C7.03883 21.5388 6.41549 21.7753 5.57722 21.7753C4.82492 21.7753 4.19084 21.5711 3.67498 21.1627C3.18061 20.7543 2.93343 20.0772 2.93343 19.1315C2.93343 18.2072 3.19136 17.5194 3.70722 17.068C4.22308 16.5952 5.05061 16.3587 6.1898 16.3587H8.09205V19.0992C8.09205 19.916 7.8771 20.5716 7.44722 21.066ZM16.765 21.066C16.3566 20.5716 16.1524 19.916 16.1524 19.0992V16.3587H18.0546C19.1938 16.3587 20.0214 16.5952 20.5372 17.068C21.0531 17.5194 21.311 18.2072 21.311 19.1315C21.311 20.0772 21.0531 20.7543 20.5372 21.1627C20.0429 21.5711 19.4195 21.7753 18.6672 21.7753C17.8289 21.7753 17.1949 21.5388 16.765 21.066ZM40.825 5.3249C41.1084 5.60824 41.6 5.7499 42.3 5.7499C42.9834 5.7499 43.4584 5.60824 43.725 5.3249C44.0084 5.04157 44.15 4.69157 44.15 4.2749V3.7499C44.15 3.33323 44.0084 2.98324 43.725 2.6999C43.4584 2.41657 42.975 2.2749 42.275 2.2749C41.5917 2.2749 41.1084 2.41657 40.825 2.6999C40.5584 2.98324 40.425 3.33323 40.425 3.7499V4.2749C40.425 4.69157 40.5584 5.04157 40.825 5.3249ZM40.925 18.7999H36.525V20.9999H47.775V18.7999H43.65V8.0999H36.525V10.2999H40.925V18.7999ZM54.3653 20.8249C55.1319 21.1416 55.9986 21.2999 56.9653 21.2999C58.3153 21.2999 59.4153 21.0166 60.2653 20.4499C61.1153 19.8666 61.7486 19.1249 62.1653 18.2249L60.1653 16.9999C59.8653 17.6332 59.4569 18.1332 58.9403 18.4999C58.4403 18.8666 57.7903 19.0499 56.9903 19.0499C55.9236 19.0499 55.1069 18.7332 54.5403 18.0999C53.9736 17.4666 53.6903 16.6416 53.6903 15.6249V13.4749C53.6903 12.4416 53.9736 11.6166 54.5403 10.9999C55.1069 10.3666 55.9069 10.0499 56.9403 10.0499C57.6903 10.0499 58.2986 10.2249 58.7653 10.5749C59.2486 10.9249 59.6069 11.3999 59.8403 11.9999L61.9653 10.8499C61.5653 9.9499 60.9569 9.21657 60.1403 8.6499C59.3403 8.08324 58.2736 7.7999 56.9403 7.7999C55.9903 7.7999 55.1319 7.95824 54.3653 8.2749C53.6153 8.59157 52.9736 9.04157 52.4403 9.6249C51.9236 10.2082 51.5236 10.9166 51.2403 11.7499C50.9736 12.5832 50.8403 13.5166 50.8403 14.5499C50.8403 15.5832 50.9736 16.5166 51.2403 17.3499C51.5236 18.1832 51.9236 18.8916 52.4403 19.4749C52.9736 20.0582 53.6153 20.5082 54.3653 20.8249ZM71.4805 21.2999C70.5305 21.2999 69.6722 21.1416 68.9055 20.8249C68.1555 20.5082 67.5138 20.0582 66.9805 19.4749C66.4638 18.8916 66.0638 18.1832 65.7805 17.3499C65.4972 16.5166 65.3555 15.5832 65.3555 14.5499C65.3555 13.5166 65.4972 12.5832 65.7805 11.7499C66.0638 10.9166 66.4638 10.2082 66.9805 9.6249C67.5138 9.04157 68.1555 8.59157 68.9055 8.2749C69.6722 7.95824 70.5305 7.7999 71.4805 7.7999C72.4305 7.7999 73.2805 7.95824 74.0305 8.2749C74.7972 8.59157 75.4388 9.04157 75.9555 9.6249C76.4888 10.2082 76.8972 10.9166 77.1805 11.7499C77.4638 12.5832 77.6055 13.5166 77.6055 14.5499C77.6055 15.5832 77.4638 16.5166 77.1805 17.3499C76.8972 18.1832 76.4888 18.8916 75.9555 19.4749C75.4388 20.0582 74.7972 20.5082 74.0305 20.8249C73.2805 21.1416 72.4305 21.2999 71.4805 21.2999ZM71.4805 19.1499C72.4805 19.1499 73.2722 18.8499 73.8555 18.2499C74.4555 17.6332 74.7555 16.7249 74.7555 15.5249V13.5749C74.7555 12.3749 74.4555 11.4749 73.8555 10.8749C73.2722 10.2582 72.4805 9.9499 71.4805 9.9499C70.4805 9.9499 69.6805 10.2582 69.0805 10.8749C68.4972 11.4749 68.2055 12.3749 68.2055 13.5749V15.5249C68.2055 16.7249 68.4972 17.6332 69.0805 18.2499C69.6805 18.8499 70.4805 19.1499 71.4805 19.1499ZM83.7957 8.0999H81.0707V20.9999H83.7957V12.2499C83.7957 11.8832 83.8707 11.5582 84.0207 11.2749C84.1874 10.9916 84.4041 10.7582 84.6707 10.5749C84.9374 10.3916 85.2374 10.2582 85.5707 10.1749C85.9041 10.0749 86.2457 10.0249 86.5957 10.0249C88.3791 10.0249 89.2707 11.0499 89.2707 13.0999V20.9999H91.9957V12.6999C91.9957 11.1332 91.5957 9.9249 90.7957 9.0749C89.9957 8.2249 88.9457 7.7999 87.6457 7.7999C87.1124 7.7999 86.6457 7.86657 86.2457 7.9999C85.8457 8.13324 85.4957 8.31657 85.1957 8.5499C84.8957 8.76657 84.6374 9.03324 84.4207 9.3499C84.2207 9.6499 84.0541 9.96657 83.9207 10.2999H83.7957V8.0999Z" fill="white"/>
</svg>
