<svg width="524" height="310" viewBox="0 0 524 310" fill="none" xmlns="http://www.w3.org/2000/svg">
<path d="M149.5 0C134.312 0 122 12.3122 122 27.5C122 42.6878 134.312 55 149.5 55H160C168.284 55 175 61.7157 175 70V70C175 78.2843 168.284 85 160 85H27.5C12.3122 85 0 97.3122 0 112.5C0 127.688 12.3122 140 27.5 140H127.5C135.784 140 142.5 146.716 142.5 155V155C142.5 163.284 135.784 170 127.5 170H99.5C84.3122 170 72 182.312 72 197.5C72 212.688 84.3121 225 99.5 225H220C228.284 225 235 231.716 235 240V240C235 248.284 228.284 255 220 255H179.5C164.312 255 152 267.312 152 282.5C152 297.688 164.312 310 179.5 310H429.5C444.688 310 457 297.688 457 282.5C457 267.312 444.688 255 429.5 255H365C356.716 255 350 248.284 350 240V240C350 231.716 356.716 225 365 225H496.5C511.688 225 524 212.688 524 197.5C524 182.312 511.688 170 496.5 170H405C396.716 170 390 163.284 390 155V155C390 146.716 396.716 140 405 140H456.5C471.688 140 484 127.688 484 112.5C484 97.3122 471.688 85 456.5 85H357C348.716 85 342 78.2843 342 70V70C342 61.7157 348.716 55 357 55H375.5C390.688 55 403 42.6878 403 27.5C403 12.3122 390.688 0 375.5 0H149.5Z" fill="#101010"/>
<circle cx="56" cy="180" r="3" fill="#303030"/>
<circle cx="273" cy="251" r="4" fill="#303030"/>
<circle cx="445" cy="148" r="3" fill="#303030"/>
<path d="M126.769 237.361L125.573 235.011C124.323 235.461 123.233 235.687 122.302 235.689C121.376 235.678 120.429 235.388 119.46 234.818C118.499 234.244 117.665 233.37 116.958 232.195L119.095 230.549C119.92 231.718 120.714 232.481 121.476 232.839C122.563 233.338 123.592 233.4 124.563 233.026L120.757 225.546C119.698 225.854 118.52 225.983 117.222 225.931C116.261 225.894 115.388 225.61 114.602 225.078C113.825 224.542 113.198 223.804 112.72 222.864C111.869 221.193 111.773 219.538 112.429 217.9C112.867 216.801 113.825 215.776 115.303 214.827L114.732 213.704L116.116 213L116.687 214.123C118.12 213.558 119.407 213.407 120.549 213.67C122.01 214 123.224 214.856 124.19 216.239L121.948 217.84C121.339 216.988 120.689 216.431 119.997 216.17C119.309 215.895 118.543 215.874 117.697 216.107L121.145 222.883C122.479 222.577 123.379 222.409 123.847 222.379C124.742 222.329 125.537 222.418 126.233 222.644C126.929 222.871 127.561 223.24 128.128 223.751C128.703 224.258 129.179 224.882 129.556 225.621C130.384 227.249 130.557 228.87 130.075 230.485C129.593 232.1 128.549 233.365 126.944 234.281L128.153 236.657L126.769 237.361ZM116.3 216.785C115.457 217.39 114.92 218.123 114.69 218.985C114.469 219.842 114.565 220.676 114.977 221.485C115.384 222.286 115.947 222.843 116.665 223.157C117.393 223.466 118.373 223.51 119.608 223.287L116.3 216.785ZM125.947 232.322C126.804 231.744 127.355 230.965 127.601 229.985C127.857 229.001 127.729 228.008 127.22 227.007C126.786 226.154 126.225 225.579 125.538 225.283C124.854 224.973 123.777 224.935 122.307 225.168L125.947 232.322Z" fill="#303030"/>
<path d="M379.066 267.835L374.314 259.751L382.398 255L387.149 263.083L379.066 267.835ZM385.128 278.149L380.377 270.066L388.46 265.314L393.212 273.398L385.128 278.149ZM368.751 273.897L364 265.814L372.083 261.063L376.835 269.146L368.751 273.897ZM374.814 284.212L370.063 276.128L378.146 271.377L382.897 279.46L374.814 284.212Z" fill="#303030"/>
<path d="M457.456 228.798C456.97 228.615 456.534 228.409 456.151 228.179C455.772 227.937 455.492 227.675 455.313 227.394C455.139 227.101 455.115 226.785 455.241 226.448C455.326 226.224 455.347 226.054 455.305 225.938C455.28 225.815 455.208 225.702 455.09 225.601C454.684 225.278 454.575 224.866 454.763 224.367C454.828 224.192 454.92 224.063 455.037 223.979C455.159 223.882 455.24 223.742 455.281 223.558C455.31 223.441 455.298 223.322 455.243 223.202C455.206 223.074 455.134 222.961 455.028 222.865C454.829 222.676 454.713 222.49 454.682 222.307C454.651 222.125 454.675 221.927 454.755 221.715C454.868 221.415 455 221.195 455.153 221.053C455.324 220.903 455.598 220.743 455.975 220.571C455.613 220.435 455.225 220.275 454.81 220.09C454.412 219.898 453.995 219.72 453.558 219.556C453.159 219.406 452.754 219.268 452.346 219.143C451.954 219.01 451.652 218.904 451.44 218.824C450.903 218.623 450.547 218.396 450.371 218.145C450.207 217.898 450.184 217.619 450.301 217.307C450.461 216.882 450.749 216.663 451.168 216.649C451.598 216.64 452.094 216.705 452.654 216.845C453.047 216.935 453.496 217.047 454.002 217.18C454.508 217.313 455.003 217.435 455.488 217.546C455.752 217.603 456.036 217.681 456.34 217.781C456.649 217.869 456.952 217.954 457.248 218.037C457.329 218.01 457.429 217.991 457.548 217.979C457.679 217.971 457.793 217.971 457.89 217.979C458.078 218.007 458.348 218.03 458.697 218.047C459.059 218.069 459.494 218.069 460.001 218.046C460.466 218.021 460.966 218.074 461.501 218.204C462.054 218.326 462.611 218.492 463.172 218.703C463.722 218.91 464.154 219.179 464.471 219.512C464.788 219.844 465.154 220.31 465.57 220.908C465.859 221.315 466.089 221.63 466.262 221.851C466.436 222.073 466.6 222.242 466.756 222.357C466.924 222.478 467.134 222.585 467.383 222.678C467.495 222.721 467.639 222.775 467.814 222.84C467.993 222.893 468.148 222.937 468.277 222.972C468.392 223.385 468.412 223.92 468.337 224.575C468.274 225.235 468.121 225.89 467.877 226.539C467.239 228.236 466.521 229.313 465.723 229.768L464.394 229.268C463.693 229.503 462.936 229.625 462.121 229.632C461.306 229.639 460.493 229.568 459.68 229.42C458.884 229.263 458.143 229.056 457.456 228.798ZM465.72 230.856C465.583 230.805 465.497 230.73 465.463 230.631C465.441 230.538 465.449 230.441 465.487 230.341L465.536 230.21C465.564 230.363 465.634 230.46 465.746 230.503C465.996 230.597 466.249 230.549 466.505 230.36C466.778 230.164 467.04 229.885 467.29 229.523C467.557 229.153 467.798 228.738 468.014 228.278C468.242 227.823 468.436 227.383 468.595 226.958C468.755 226.534 468.896 226.081 469.02 225.601C469.161 225.112 469.256 224.65 469.306 224.213C469.374 223.768 469.367 223.388 469.286 223.073C469.21 222.745 469.041 222.532 468.778 222.434C468.666 222.391 468.556 222.4 468.448 222.459L468.462 222.422C468.575 222.122 468.756 222.019 469.006 222.113L470.41 222.641C470.709 222.753 470.903 222.997 470.99 223.371C471.082 223.733 471.099 224.16 471.043 224.652C470.999 225.148 470.906 225.661 470.763 226.192C470.626 226.71 470.477 227.181 470.318 227.605C470.158 228.03 469.957 228.488 469.715 228.981C469.478 229.462 469.218 229.906 468.937 230.313C468.656 230.72 468.355 231.027 468.035 231.235C467.728 231.447 467.424 231.496 467.125 231.384L465.72 230.856Z" fill="#303030"/>
<path d="M388.594 107.802L400.102 111.475L399.615 113.001L390.423 110.067L393.769 119.08L385.291 124.8L394.966 127.888L394.488 129.386L382.729 125.633L383.284 123.893L391.392 118.403L388.074 109.43L388.594 107.802Z" fill="#303030"/>
<path d="M114.307 111.611C114.66 111.906 114.908 112.295 115.051 112.78C115.207 113.248 115.258 113.734 115.203 114.236C115.134 114.725 114.964 115.13 114.695 115.453C114.387 115.821 113.907 116.084 113.254 116.242C112.601 116.401 111.9 116.506 111.152 116.559C110.376 116.615 109.705 116.654 109.139 116.676L118.65 124.618C119.525 125.348 120.089 125.937 120.342 126.383C120.595 126.828 120.694 127.302 120.64 127.804C120.598 128.291 120.347 128.81 119.885 129.363C119.424 129.915 118.965 130.262 118.509 130.402C118.038 130.53 117.554 130.517 117.057 130.362C116.573 130.193 115.886 129.736 114.996 128.993L105.486 121.051L105.71 123.076C105.827 124.215 105.851 125.03 105.781 125.519C105.698 126.023 105.529 126.429 105.273 126.736C105.003 127.058 104.634 127.297 104.166 127.453C103.697 127.609 103.218 127.652 102.729 127.582C102.212 127.515 101.777 127.334 101.424 127.039C101.117 126.783 100.87 126.407 100.683 125.913C100.484 125.434 100.339 124.765 100.248 123.907L99 111.922L110.762 111.035C111.751 110.975 112.505 110.992 113.025 111.087C113.557 111.167 113.985 111.342 114.307 111.611Z" fill="#303030"/>
</svg>
