<svg width="419" height="178" viewBox="0 0 419 178" fill="none" xmlns="http://www.w3.org/2000/svg">
<circle opacity="0.4" cx="3" cy="73" r="3" fill="white"/>
<circle opacity="0.3" cx="220" cy="144" r="4" fill="white"/>
<circle opacity="0.3" cx="392" cy="37" r="3" fill="white"/>
<path opacity="0.3" d="M65.7688 156.361L64.5731 154.011C63.3228 154.461 62.2325 154.687 61.3023 154.689C60.3763 154.678 59.4287 154.388 58.4595 153.818C57.499 153.244 56.6653 152.37 55.9582 151.195L58.0954 149.549C58.9204 150.718 59.714 151.481 60.4765 151.839C61.5631 152.338 62.5921 152.4 63.5634 152.026L59.7571 144.546C58.6979 144.854 57.5196 144.983 56.2221 144.931C55.261 144.894 54.3877 144.61 53.6022 144.078C52.8254 143.542 52.1979 142.804 51.7196 141.864C50.8693 140.193 50.7726 138.538 51.4293 136.9C51.867 135.801 52.825 134.776 54.3033 133.827L53.732 132.704L55.1159 132L55.6872 133.123C57.1201 132.558 58.4074 132.407 59.5492 132.67C61.0102 133 62.2238 133.856 63.19 135.239L60.9477 136.84C60.339 135.988 59.6887 135.431 58.9968 135.17C58.3092 134.895 57.5425 134.874 56.6969 135.107L60.1445 141.883C61.4788 141.577 62.3795 141.409 62.8466 141.379C63.7416 141.329 64.5371 141.418 65.2331 141.644C65.9291 141.871 66.5606 142.24 67.1276 142.751C67.7033 143.258 68.1793 143.882 68.5558 144.621C69.3839 146.249 69.5569 147.87 69.0747 149.485C68.5925 151.1 67.5489 152.365 65.9437 153.281L67.1527 155.657L65.7688 156.361ZM55.2997 135.785C54.4567 136.39 53.9203 137.123 53.6905 137.985C53.4694 138.842 53.5648 139.676 53.9766 140.485C54.3841 141.286 54.947 141.843 55.6655 142.157C56.3926 142.466 57.3734 142.51 58.6078 142.287L55.2997 135.785ZM64.9473 151.322C65.8036 150.744 66.355 149.965 66.6014 148.985C66.8565 148.001 66.7295 147.008 66.2202 146.007C65.7862 145.154 65.2253 144.579 64.5375 144.283C63.854 143.973 62.7772 143.935 61.307 144.168L64.9473 151.322Z" fill="white"/>
<path opacity="0.3" d="M326.066 160.835L321.314 152.751L329.398 148L334.149 156.083L326.066 160.835ZM332.128 171.149L327.377 163.066L335.46 158.314L340.212 166.398L332.128 171.149ZM315.751 166.897L311 158.814L319.083 154.063L323.835 162.146L315.751 166.897ZM321.814 177.212L317.063 169.128L325.146 164.377L329.897 172.46L321.814 177.212Z" fill="white"/>
<path opacity="0.3" d="M405.835 122.281C405.318 122.227 404.844 122.138 404.415 122.012C403.987 121.874 403.651 121.691 403.406 121.465C403.163 121.225 403.06 120.926 403.098 120.568C403.123 120.329 403.1 120.159 403.03 120.058C402.975 119.945 402.877 119.855 402.737 119.786C402.263 119.576 402.053 119.206 402.109 118.675C402.128 118.49 402.184 118.341 402.276 118.23C402.369 118.106 402.412 117.949 402.405 117.761C402.404 117.64 402.362 117.529 402.279 117.426C402.211 117.312 402.113 117.221 401.986 117.154C401.745 117.022 401.586 116.871 401.51 116.703C401.434 116.534 401.407 116.337 401.431 116.111C401.464 115.793 401.537 115.546 401.649 115.37C401.776 115.182 402 114.957 402.322 114.696C401.938 114.656 401.521 114.599 401.073 114.526C400.64 114.44 400.191 114.373 399.727 114.325C399.302 114.281 398.877 114.25 398.45 114.232C398.037 114.202 397.718 114.176 397.493 114.152C396.922 114.093 396.52 113.964 396.286 113.765C396.066 113.568 395.972 113.303 396.007 112.972C396.054 112.521 396.278 112.236 396.679 112.117C397.094 111.999 397.589 111.937 398.167 111.93C398.57 111.919 399.033 111.913 399.556 111.914C400.079 111.915 400.589 111.908 401.086 111.893C401.356 111.881 401.65 111.884 401.97 111.904C402.291 111.911 402.605 111.917 402.913 111.922C402.985 111.876 403.077 111.832 403.188 111.79C403.313 111.749 403.423 111.721 403.519 111.704C403.709 111.683 403.975 111.637 404.318 111.566C404.673 111.496 405.094 111.385 405.579 111.235C406.022 111.093 406.52 111.018 407.07 111.008C407.635 110.987 408.217 111.007 408.813 111.069C409.397 111.13 409.884 111.281 410.274 111.523C410.664 111.765 411.137 112.123 411.691 112.596C412.073 112.917 412.375 113.163 412.599 113.334C412.822 113.505 413.024 113.626 413.204 113.699C413.398 113.773 413.627 113.823 413.892 113.851C414.012 113.863 414.164 113.879 414.35 113.899C414.537 113.905 414.697 113.908 414.831 113.909C415.047 114.28 415.202 114.792 415.295 115.445C415.401 116.099 415.418 116.771 415.346 117.461C415.158 119.265 414.735 120.487 414.079 121.129L412.666 120.982C412.048 121.387 411.345 121.696 410.559 121.909C409.773 122.122 408.967 122.259 408.143 122.32C407.334 122.37 406.564 122.357 405.835 122.281ZM414.351 122.183C414.205 122.168 414.103 122.117 414.045 122.031C414 121.946 413.983 121.85 413.995 121.744L414.009 121.605C414.075 121.746 414.167 121.822 414.287 121.835C414.552 121.862 414.785 121.753 414.985 121.505C415.199 121.246 415.382 120.91 415.532 120.497C415.697 120.072 415.826 119.609 415.918 119.109C416.024 118.611 416.1 118.136 416.147 117.685C416.194 117.234 416.216 116.761 416.215 116.265C416.227 115.757 416.203 115.285 416.141 114.849C416.094 114.402 415.991 114.036 415.833 113.752C415.676 113.454 415.459 113.29 415.18 113.261C415.061 113.249 414.957 113.285 414.867 113.369L414.872 113.33C414.905 113.011 415.054 112.866 415.319 112.894L416.811 113.049C417.129 113.082 417.378 113.269 417.557 113.61C417.737 113.937 417.862 114.345 417.932 114.835C418.015 115.326 418.054 115.846 418.051 116.396C418.049 116.932 418.024 117.425 417.977 117.876C417.93 118.327 417.852 118.821 417.742 119.36C417.634 119.885 417.495 120.38 417.326 120.845C417.157 121.31 416.943 121.683 416.686 121.964C416.442 122.247 416.161 122.372 415.843 122.339L414.351 122.183Z" fill="white"/>
<path opacity="0.3" d="M335.594 0.802246L347.102 4.4749L346.615 6.00065L337.423 3.06728L340.769 12.0796L332.291 17.8L341.966 20.8878L341.488 22.3856L329.729 18.6328L330.284 16.8931L338.392 11.4028L335.074 2.43033L335.594 0.802246Z" fill="white"/>
<path opacity="0.3" d="M61.3071 7.61116C61.6602 7.90601 61.9082 8.29549 62.0511 8.77962C62.2068 9.2484 62.2576 9.73371 62.2033 10.2356C62.1336 10.7246 61.9642 11.1303 61.695 11.4527C61.3873 11.8211 60.9069 12.0844 60.2538 12.2425C59.6006 12.4005 58.9001 12.5061 58.1523 12.5591C57.3764 12.6146 56.7054 12.6536 56.1395 12.6761L65.6496 20.6178C66.5246 21.3485 67.0886 21.9368 67.3417 22.3826C67.5947 22.8284 67.6941 23.3023 67.6398 23.8041C67.5984 24.2906 67.3469 24.8102 66.8854 25.3628C66.4239 25.9155 65.9651 26.262 65.5092 26.4023C65.0379 26.5299 64.5539 26.5166 64.0573 26.3624C63.5735 26.1929 62.8864 25.7364 61.996 24.9929L52.4859 17.0512L52.7105 19.0757C52.8271 20.2154 52.8506 21.0297 52.7809 21.5187C52.6985 22.0231 52.5291 22.4288 52.2727 22.7358C52.0035 23.0582 51.6345 23.2973 51.1657 23.453C50.6969 23.6087 50.218 23.6517 49.729 23.5821C49.2118 23.515 48.7766 23.334 48.4236 23.0392C48.1165 22.7828 47.8698 22.4074 47.6834 21.913C47.4841 21.4339 47.3389 20.7654 47.2476 19.9075L46 7.92191L57.7624 7.03519C58.7509 6.97475 59.505 6.99217 60.0247 7.08745C60.5573 7.16738 60.9848 7.34195 61.3071 7.61116Z" fill="white"/>
</svg>
